# xmcd
#
# Track frame offsets:
#	150
#	10773
#	26288
#	42803
#	55720
#	68518
#	84960
#	96388
#	108910
#	123583
#	132815
#	145038
#	163733
#
# Disc length: 2310 seconds
#
# Revision: 3
# Processed by: cddbd v1.5.2PL0 Copyright (c) Steve Scherf et al.
# Submitted via: audiograbber 1.83.01
#
DISCID=9a09040d
DTITLE=Wright, John Lincoln - That old mill
DYEAR=1990
DGENRE=Country
TTITLE0=The same old wind I
TTITLE1=Grampa's words
TTITLE2=Wild and high
TTITLE3=The gandy dancer
TTITLE4=The ballad of Frank and Pearl
TTITLE5=One who cares
TTITLE6=The same old wind II
TTITLE7=That old mill
TTITLE8=Lovin' on a shoestring
TTITLE9=Pine Tree John
TTITLE10=Mount Katahdin sunrise
TTITLE11=Waltz of the pines
TTITLE12=The same old wind III
EXTD=
EXTT0=
EXTT1=
EXTT2=
EXTT3=
EXTT4=
EXTT5=
EXTT6=
EXTT7=
EXTT8=
EXTT9=
EXTT10=
EXTT11=
EXTT12=
PLAYORDER=
